<svg width="52" height="52" viewBox="0 0 52 52" fill="none" xmlns="http://www.w3.org/2000/svg">
<path fill-rule="evenodd" clip-rule="evenodd" d="M25.7391 0C11.5238 0 0 11.5237 0 25.7389V51.489H25.7337C39.9519 51.489 51.478 39.9602 51.478 25.7417C51.478 11.5265 39.9543 0 25.7391 0ZM19.1686 30.0934L15.7871 18.5023C15.4452 17.3244 15.1222 16.4945 14.8182 16.0132C14.5143 15.5194 13.9317 15.2725 13.0705 15.2725C12.4245 15.2725 11.8799 15.4939 11.4367 15.9376C10.9934 16.3808 10.7718 16.8811 10.7718 17.4386C10.7718 17.8818 10.9807 18.6861 11.3987 19.8515L15.5971 32.2785C15.7111 32.608 15.8694 33.0577 16.0721 33.6277C16.2747 34.1851 16.509 34.6729 16.775 35.0906C17.0409 35.4962 17.3702 35.8063 17.7628 36.0216C18.1681 36.25 18.6557 36.3637 19.2256 36.3637C20.3401 36.3637 21.119 36.0091 21.5623 35.2999C22.0056 34.5777 22.4172 33.5135 22.7971 32.1077L25.6657 21.9986L28.6292 32.1077C28.8826 33.0197 29.117 33.7609 29.3323 34.3308C29.5477 34.9008 29.8767 35.3821 30.32 35.7747C30.7762 36.1674 31.3967 36.3637 32.182 36.3637C32.9418 36.3637 33.5368 36.1804 33.9675 35.8128C34.4108 35.4456 34.7338 35.0275 34.9366 34.5587C35.139 34.0899 35.4239 33.3302 35.7915 32.2785L40.0276 19.8515C40.4202 18.7748 40.6166 17.9704 40.6166 17.4386C40.6166 16.8556 40.3887 16.3492 39.9329 15.9185C39.4767 15.4878 38.9388 15.2725 38.3178 15.2725C37.6972 15.2725 37.2224 15.4182 36.8934 15.7092C36.5638 15.9882 36.3295 16.3172 36.1902 16.6973C36.051 17.0649 35.8672 17.6664 35.6393 18.5023L32.2196 30.0934L29.1425 19.3196C28.8255 18.2429 28.5786 17.4891 28.4013 17.0584C28.224 16.6152 27.914 16.2095 27.4707 15.8424C27.0399 15.4623 26.4383 15.2725 25.6657 15.2725C24.9058 15.2725 24.3043 15.4623 23.861 15.8424C23.4304 16.2095 23.1327 16.6022 22.9681 17.0204C22.8162 17.426 22.5755 18.1923 22.2462 19.3196L19.1686 30.0934Z" fill="white"/>
</svg>
