<svg preserveAspectRatio="xMidYMid meet" width="100%" height="100%" overflow="visible" style="display: block;" viewBox="0 0 335 335" fill="none" xmlns="http://www.w3.org/2000/svg">
<g id="new image" clip-path="url(#clip0_0_4)">
<path id="Vector" d="M0 0C110.55 0 221.1 0 335 0C335 110.55 335 221.1 335 335C224.45 335 113.9 335 0 335C0 224.45 0 113.9 0 0Z" fill="none"/>
<path id="Vector_2" d="M171.426 133.804C172.552 133.919 173.084 134.146 174.043 134.785C174.457 136.549 174.017 138.334 173.238 139.929C172.026 141.721 170.179 143.449 168.154 144.272C167.235 144.217 166.918 144.015 166.253 143.373C165.864 142.637 165.864 142.637 165.914 141.835C166.268 140.77 166.664 140.556 167.623 139.999C169.008 139.185 169.911 138.511 170.333 136.909C170.377 136.627 170.42 136.344 170.465 136.053C170.702 134.527 170.702 134.527 171.426 133.804Z" fill="#0051A8"/>
<path id="Vector_3" d="M130.532 170.771C132.588 170.813 134.041 171.674 135.767 172.734C135.848 174.575 135.848 174.575 135.112 175.679C133.909 175.837 133.216 175.584 132.168 175.024C132.156 175.273 132.144 175.521 132.131 175.777C132.109 176.102 132.088 176.427 132.066 176.762C132.047 177.085 132.028 177.408 132.008 177.74C131.824 178.712 131.653 179.033 130.859 179.604C130.021 179.707 130.021 179.707 129.224 179.604C128.439 178.82 128.464 178.616 128.447 177.539C128.485 175.343 128.934 172.37 130.532 170.771Z" fill="#0051A8"/>
<path id="Vector_4" d="M130.921 190.993C132.445 191.468 133.095 192.167 134.151 193.328C134.722 193.932 135.272 194.367 135.951 194.837C136.214 195.1 136.477 195.364 136.748 195.635C136.715 197.631 136.715 197.631 136.094 198.252C133.997 198.197 132.928 197.43 131.391 196.064C131.186 195.895 130.98 195.726 130.769 195.551C129.781 194.695 129.285 194.206 128.904 192.928C128.896 192.036 128.896 192.036 129.224 191.402C129.878 191.055 129.878 191.055 130.921 190.993Z" fill="#0051A8"/>
<path id="Vector_5" d="M129.101 180.627C129.878 180.913 129.878 180.913 130.532 181.567C130.612 182.257 130.612 182.257 130.608 183.1C130.607 183.403 130.606 183.706 130.606 184.019C130.602 184.337 130.598 184.655 130.594 184.982C130.593 185.298 130.593 185.615 130.593 185.941C130.578 188.3 130.578 188.3 130.205 189.419C129.449 189.527 128.694 189.635 127.915 189.746C126.649 188.275 126.776 187.033 126.79 185.166C126.784 184.871 126.777 184.576 126.771 184.271C126.772 182.122 126.772 182.122 127.543 181.033C128.242 180.586 128.242 180.586 129.101 180.627Z" fill="#0051A8"/>
<path id="Vector_6" d="M162.961 152.533C163.901 152.778 163.901 152.778 164.229 153.105C164.144 153.986 164.03 154.848 163.901 155.723C163.853 156.084 163.805 156.446 163.756 156.819C163.703 157.2 163.649 157.58 163.595 157.972C163.544 158.335 163.494 158.699 163.443 159.073C163.247 159.976 163.247 159.976 162.593 160.63C161.611 160.732 161.611 160.732 160.63 160.63C159.655 159.167 159.849 158.031 160.162 156.371C161.078 152.382 161.078 152.382 162.961 152.533Z" fill="#0051A8"/>
<path id="Vector_7" d="M164.229 118.428C165.674 118.462 166.328 118.572 167.386 119.588C167.633 119.934 167.88 120.28 168.134 120.636C168.386 120.978 168.639 121.321 168.899 121.674C169.471 122.695 169.647 123.174 169.463 124.316C168.911 124.93 168.911 124.93 168.154 125.298C167.098 125.228 166.642 125.092 165.881 124.341C165.693 124.083 165.506 123.825 165.312 123.56C165.122 123.305 164.932 123.05 164.736 122.787C163.546 121.004 163.546 121.004 163.676 119.675C163.901 118.755 163.901 118.755 164.229 118.428Z" fill="#0051A8"/>
<path id="Vector_8" d="M34.6573 223.708C35.6592 223.77 35.6592 223.77 36.3135 224.424C36.3288 225.432 36.3288 225.432 36.2317 226.653C36.1887 227.253 36.1887 227.253 36.1448 227.865C35.9631 229.171 35.6584 230.173 34.9027 231.253C34.3506 231.621 34.3506 231.621 33.4918 231.539C32.7148 231.294 32.7148 231.294 32.3877 230.967C32.182 228.53 32.3435 226.334 33.3691 224.097C33.6963 223.77 33.6963 223.77 34.6573 223.708Z" fill="#0051A8"/>
<path id="Vector_9" d="M29.4434 249.941C30.5089 250.078 30.9595 250.149 31.7334 250.923C31.8306 251.896 31.732 252.872 31.6721 253.847C31.6566 254.251 31.6566 254.251 31.6408 254.664C31.6262 254.924 31.6117 255.183 31.5967 255.451C31.5839 255.688 31.5712 255.925 31.5581 256.17C31.3668 256.978 31.0741 257.287 30.4248 257.793C29.5092 257.93 29.0184 257.949 28.2447 257.422C27.2926 256.092 27.8885 254.088 28.1348 252.559C28.4194 251.608 28.7255 250.659 29.4434 249.941Z" fill="#0051A8"/>
<path id="Vector_10" d="M151.581 210.588C152.451 210.684 152.451 210.684 153.066 211.199C153.248 211.427 153.429 211.655 153.617 211.89C153.81 212.129 154.003 212.369 154.202 212.616C154.38 212.842 154.558 213.068 154.741 213.301C155.004 213.591 155.268 213.881 155.539 214.18C156.145 215.077 156.245 215.512 156.05 216.572C155.661 217.165 155.661 217.165 155.068 217.554C154.288 217.653 154.288 217.653 153.433 217.554C152.524 216.807 151.853 215.871 151.143 214.937C150.927 214.66 150.711 214.383 150.488 214.098C150.029 212.978 150.221 212.171 150.488 211.011C150.815 210.684 150.815 210.684 151.581 210.588Z" fill="#0051A8"/>
<path id="Vector_11" d="M146.164 204.341C147.892 204.549 148.69 205.619 149.851 206.837C150.518 207.782 150.68 208.128 150.529 209.252C150.408 209.617 150.286 209.981 150.161 210.356C149.126 210.615 149.126 210.615 147.871 210.684C146.943 210.057 146.943 210.057 146.113 209.171C145.833 208.883 145.554 208.595 145.267 208.299C144.589 207.398 144.342 206.89 144.272 205.776C144.754 204.728 145.013 204.501 146.164 204.341Z" fill="#0051A8"/>
<path id="Vector_12" d="M163.124 109.636C163.901 109.922 163.901 109.922 164.556 110.903C164.68 111.847 164.767 112.757 164.821 113.705C164.842 113.96 164.863 114.215 164.885 114.478C164.93 115.219 164.93 115.219 164.883 116.465C163.901 117.119 163.901 117.119 162.899 117.058C161.938 116.792 161.938 116.792 161.284 115.811C160.989 114.601 160.907 113.391 160.855 112.151C160.843 111.876 160.83 111.602 160.818 111.319C160.957 110.576 160.957 110.576 161.564 109.984C162.266 109.595 162.266 109.595 163.124 109.636Z" fill="#0051A8"/>
<path id="Vector_13" d="M66.7383 185.166C67.7197 185.493 67.7197 185.493 68.0469 186.147C68.2116 187.159 68.2229 187.831 67.6661 188.714C66.4671 190.165 65.3697 191.29 63.4259 191.484C62.4854 191.382 62.4854 191.382 61.5039 190.728C61.2585 189.828 61.2585 189.828 61.5039 188.765C62.4096 187.984 63.4235 187.412 64.4482 186.802C64.9969 186.37 65.5436 185.935 66.084 185.493C66.2999 185.385 66.5158 185.277 66.7383 185.166Z" fill="#0051A8"/>
<path id="Vector_14" d="M164.324 61.84C165.605 62.3 166.187 63.235 166.948 64.3051C167.097 64.5065 167.245 64.7079 167.398 64.9153C167.763 65.411 168.123 65.9107 168.481 66.4111C168.073 67.5357 168.073 67.5357 167.5 68.7012C166.784 69.0079 166.784 69.0079 166.191 69.0283C165.775 68.5654 165.359 68.1018 164.944 67.6379C164.713 67.3799 164.481 67.1218 164.243 66.8559C164.022 66.6011 163.801 66.3464 163.574 66.084C163.383 65.8643 163.191 65.6446 162.994 65.4182C162.29 64.29 162.651 63.4214 162.92 62.1582C163.574 61.8311 163.574 61.8311 164.324 61.84Z" fill="#0051A8"/>
<path id="Vector_15" d="M139.277 198.152C140.594 198.275 141.088 198.669 142.085 199.52C142.367 199.755 142.649 199.99 142.94 200.233C143.862 201.097 143.934 201.365 144.027 202.648C143.945 203.813 143.945 203.813 143.455 204.447C143.293 204.562 143.131 204.677 142.964 204.795C140.942 204.103 139.419 202.828 138.057 201.196C137.756 200.162 137.844 199.661 138.057 198.579C138.384 198.252 138.384 198.252 139.277 198.152Z" fill="#0051A8"/>
<path id="Vector_16" d="M59.541 120.391C60.0452 121.225 60.2764 121.766 60.5225 122.681C60.6005 122.932 60.6785 123.183 60.7589 123.441C61.2851 125.347 61.2851 125.347 60.8496 126.463C60.1953 126.934 60.1953 126.934 59.2139 127.097C58.2324 126.934 58.2324 126.934 57.7161 126.369C56.7305 124.793 56.2334 123.04 56.3309 121.188C56.4186 120.925 56.5063 120.662 56.5967 120.391C57.6742 119.852 58.4067 120.072 59.541 120.391Z" fill="#0051A8"/>
<path id="Vector_17" d="M163.247 143.618C165.078 143.813 165.078 143.813 165.864 144.6C165.83 145.421 165.757 146.182 165.639 146.992C165.613 147.209 165.587 147.427 165.561 147.651C165.373 149.015 165.084 150.052 164.229 151.143C163.227 151.306 163.227 151.306 162.266 151.143C161.27 149.649 161.646 148.281 161.938 146.562C162.596 144.269 162.596 144.269 163.247 143.618Z" fill="#0051A8"/>
<path id="Vector_18" d="M70.6641 141.982C71.4794 142.689 71.4794 142.689 72.2589 143.639C72.5212 143.946 72.7835 144.253 73.0538 144.57C73.7534 145.845 73.6567 146.487 73.2812 147.871C72.627 148.525 72.627 148.525 71.7273 148.566C70.1651 148.026 69.5738 146.932 68.7012 145.581C68.4853 145.257 68.2693 144.933 68.0469 144.6C68.1287 143.414 68.1287 143.414 68.374 142.31C69.2377 141.878 69.7039 141.847 70.6641 141.982Z" fill="#0051A8"/>
<path id="Vector_19" d="M156.487 218.102C157.358 218.208 157.358 218.208 157.985 218.795C158.169 219.053 158.354 219.312 158.544 219.578C158.834 219.982 158.834 219.982 159.13 220.395C159.386 220.77 159.386 220.77 159.648 221.152C159.864 221.449 160.08 221.746 160.303 222.052C160.72 222.99 160.64 223.465 160.303 224.424C159.648 225.078 159.648 225.078 158.865 225.206C158.013 225.078 158.013 225.078 157.375 224.48C157.187 224.219 157 223.957 156.806 223.688C156.616 223.43 156.426 223.172 156.23 222.906C155.045 221.103 155.045 221.103 155.171 219.619C155.456 218.245 155.456 218.245 156.487 218.102Z" fill="#0051A8"/>
<path id="Vector_20" d="M169.913 125.482C170.771 125.625 170.771 125.625 171.426 126.259C171.642 126.589 171.858 126.92 172.08 127.261C172.231 127.49 172.381 127.72 172.536 127.956C173.282 129.172 173.727 129.899 173.675 131.35C173.389 132.168 173.389 132.168 173.062 132.495C172.141 132.618 172.141 132.618 171.099 132.495C170.424 131.861 170.424 131.861 169.79 130.859C169.64 130.626 169.49 130.393 169.335 130.153C168.131 128.172 168.131 128.172 168.232 127.046C168.564 126.024 168.844 125.679 169.913 125.482Z" fill="#0051A8"/>
<path id="Vector_21" d="M64.4482 79.4971C64.8685 80.0884 64.8685 80.0884 65.1025 80.8057C64.9366 81.4347 64.9366 81.4347 64.5939 82.0785C64.4737 82.3104 64.3535 82.5424 64.2297 82.7813C64.0994 83.02 63.9691 83.2587 63.8348 83.5046C63.7071 83.7484 63.5793 83.9921 63.4476 84.2433C63.1315 84.8447 62.809 85.4427 62.4854 86.04C61.4871 85.8726 60.9101 85.7559 60.0726 85.1608C59.541 84.4043 59.541 84.4043 59.5001 83.5251C60.3689 80.9671 61.5252 78.7054 64.4482 79.4971Z" fill="#0051A8"/>
<path id="Vector_22" d="M170.771 77.8613C171.385 78.352 171.385 78.352 171.753 79.1699C171.777 80.9538 171.384 82.7373 170.771 84.4043C169.79 85.0586 169.79 85.0586 168.952 84.9768C168.154 84.7314 168.154 84.7314 167.5 84.0771C167.458 81.9814 167.854 79.8541 168.481 77.8613C169.383 77.4106 169.822 77.5603 170.771 77.8613Z" fill="#0051A8"/>
<path id="Vector_23" d="M163.676 234.443C164.556 234.565 164.556 234.565 165.23 235.179C166.193 236.731 167.273 238.479 167.085 240.352C166.846 241.108 166.846 241.108 166.191 241.763C165.414 241.926 165.414 241.926 164.556 241.763C163.114 240.067 162.206 238.119 162.347 235.894C162.663 234.607 162.663 234.607 163.676 234.443Z" fill="#0051A8"/>
<path id="Vector_24" d="M32.8784 232.95C33.9878 233.366 34.1856 233.829 34.6777 234.893C34.665 235.865 34.665 235.865 34.4733 236.876C34.4151 237.21 34.3569 237.545 34.2969 237.889C34.0144 238.849 33.7371 239.412 33.042 240.127C32.0401 240.25 32.0401 240.25 31.0791 240.127C30.4248 239.473 30.4248 239.473 30.343 238.328C30.3867 236.736 30.5547 235.093 31.0791 233.584C32.0605 232.93 32.0605 232.93 32.8784 232.95Z" fill="#0051A8"/>
<path id="Vector_25" d="M138.673 173.362C140.656 173.6 142.807 173.886 144.272 175.352C144.124 177.136 144.124 177.136 143.291 177.969C141.528 178.012 139.703 177.592 138.057 176.987C137.304 175.858 137.29 175.369 137.402 174.043C138.057 173.389 138.057 173.389 138.673 173.362Z" fill="#0051A8"/>
<path id="Vector_26" d="M157.502 170.158C158.667 170.444 158.667 170.444 159.321 171.426C159.238 172.728 158.424 173.617 157.645 174.615C157.401 174.938 157.157 175.26 156.906 175.592C156.05 176.333 156.05 176.333 154.846 176.481C153.76 176.333 153.76 176.333 153.105 175.679C152.919 174.555 153.079 174.089 153.658 173.096C155.952 170.201 155.952 170.201 157.502 170.158Z" fill="#0051A8"/>
<path id="Vector_27" d="M31.2427 241.62C32.0605 241.763 32.0605 241.763 32.6535 242.233C33.4141 243.874 33.1074 245.557 32.858 247.304C32.3877 248.306 32.3877 248.306 31.2631 248.817C30.0977 248.96 30.0977 248.96 29.1162 248.306C29.0712 247.352 29.0853 246.491 29.1571 245.545C29.1748 245.164 29.1748 245.164 29.1929 244.775C29.3154 242.903 29.3154 242.903 29.8956 242.182C30.4248 241.763 30.4248 241.763 31.2427 241.62Z" fill="#0051A8"/>
<path id="Vector_28" d="M59.5615 190.748C60.5225 191.055 60.5225 191.055 60.9723 191.893C61.0398 192.156 61.1072 192.419 61.1768 192.69C60.0952 194.289 58.6504 195.442 56.9238 196.289C56.051 196.379 56.051 196.379 55.2881 196.289C54.6747 195.737 54.6747 195.737 54.3066 194.98C54.374 193.926 54.4731 193.487 55.2753 192.779C55.5359 192.621 55.7965 192.464 56.0651 192.302C56.324 192.142 56.5829 191.982 56.8497 191.818C57.0901 191.674 57.3305 191.53 57.5781 191.382C58.5596 190.728 58.5596 190.728 59.5615 190.748Z" fill="#0051A8"/>
<path id="Vector_29" d="M56.7603 110.924C57.8759 111.342 58.0541 111.798 58.5596 112.866C58.6899 114.005 58.6899 114.005 58.6823 115.218C58.6848 115.62 58.6873 116.023 58.6899 116.438C58.6469 116.771 58.6039 117.103 58.5596 117.446C57.5781 118.101 57.5781 118.101 56.5762 118.019C55.6152 117.773 55.6152 117.773 54.9609 117.119C54.8873 116.178 54.8548 115.279 54.8587 114.338C54.8534 114.082 54.8482 113.825 54.8427 113.56C54.8421 112.815 54.8421 112.815 54.9609 111.558C55.9424 110.903 55.9424 110.903 56.7603 110.924Z" fill="#0051A8"/>
<path id="Vector_30" d="M165.21 243.071C167.418 243.317 167.418 243.317 168.154 244.053C168.444 244.978 168.444 244.978 168.706 246.097C168.795 246.463 168.884 246.83 168.976 247.207C169.14 248.337 169.078 249.164 168.809 250.269C168.481 250.596 168.481 250.596 167.704 250.698C166.846 250.596 166.846 250.596 166.336 250.033C165.143 248.146 164.699 245.931 164.883 243.726C164.991 243.51 165.099 243.294 165.21 243.071Z" fill="#0051A8"/>
<path id="Vector_31" d="M36.6406 215.591C37.6425 215.673 37.6425 215.673 38.6035 215.918C39.1773 217.066 38.8603 218.293 38.6035 219.517C38.1189 220.768 37.5932 221.836 36.6406 222.788C35.8228 222.87 35.8228 222.87 35.0049 222.788C34.3506 222.134 34.3506 222.134 34.3122 221.529C34.5478 219.375 35.0661 217.165 36.6406 215.591Z" fill="#0051A8"/>
<path id="Vector_32" d="M160.773 161.816C161.611 161.938 161.611 161.938 162.166 162.503C162.826 163.654 162.5 164.423 162.2 165.664C161.827 166.881 161.433 168.131 160.63 169.136C159.979 169.399 159.979 169.399 159.321 169.463C158.565 168.993 158.565 168.993 158.013 168.154C158.046 166.195 158.433 162.176 160.773 161.816Z" fill="#0051A8"/>
<path id="Vector_33" d="M74.5898 67.3926C75.1742 68.1364 75.2584 68.5346 75.1777 69.4756C74.6897 71.0878 73.3575 72.071 71.9727 72.9541C70.6845 72.995 70.6845 72.995 69.6826 72.627C69.4667 72.411 69.2508 72.1951 69.0283 71.9727C69.0915 70.4671 69.7465 69.7945 70.8072 68.783C71.0699 68.5282 71.3326 68.2735 71.6033 68.0111C72.6932 67.0432 73.1992 66.9406 74.5898 67.3926Z" fill="#0051A8"/>
<path id="Vector_34" d="M160.63 226.06C161.673 226.301 162.142 226.548 162.783 227.413C163.585 229.075 164.203 230.387 163.901 232.275C163.411 233.073 163.411 233.073 162.92 233.584C162.21 233.418 161.611 233.257 160.957 232.93C159.116 229.486 159.116 229.486 159.321 227.654C159.648 226.714 159.648 226.714 160.63 226.06Z" fill="#0051A8"/>
<path id="Vector_35" d="M42.5293 208.394C42.9471 210.026 42.7873 210.795 41.9363 212.238C41.7588 212.546 41.5813 212.855 41.3983 213.173C40.8936 213.955 40.8936 213.955 40.2393 214.609C39.0533 214.65 39.0533 214.65 37.9492 214.609C37.3864 212.84 37.722 211.898 38.5422 210.234C39.6842 208.047 40.1033 207.989 42.5293 208.394Z" fill="#0051A8"/>
<path id="Vector_36" d="M78.5156 164.229C80.0696 164.474 80.0696 164.474 80.8057 165.21C80.9825 167.226 80.6601 168.923 79.8242 170.771C79.1699 171.426 79.1699 171.426 78.1885 171.508C77.207 171.426 77.207 171.426 76.5527 170.771C76.7074 168.53 76.9454 165.941 78.5156 164.229Z" fill="#0051A8"/>
<path id="Vector_37" d="M148.832 175.29C149.106 175.286 149.38 175.282 149.662 175.278C150.055 175.277 150.055 175.277 150.456 175.276C150.698 175.275 150.939 175.273 151.187 175.272C151.797 175.352 151.797 175.352 152.451 176.006C152.594 176.783 152.594 176.783 152.451 177.642C151.879 178.398 151.879 178.398 150.815 178.95C149.201 179.148 147.578 179.331 146.12 178.525C145.581 177.969 145.581 177.969 145.479 176.783C145.672 174.697 147.087 175.292 148.832 175.29Z" fill="#0051A8"/>
<path id="Vector_38" d="M60.9314 128.058C62.1582 128.242 62.1582 128.242 62.6502 128.78C63.0725 129.46 63.4436 130.14 63.7939 130.859C63.9146 131.087 64.0352 131.314 64.1594 131.548C64.538 132.361 64.5619 132.917 64.4482 133.804C64.0802 134.417 64.0802 134.417 63.4668 134.785C62.5275 134.772 62.5275 134.772 61.5039 134.458C60.7998 133.553 60.7998 133.553 60.2158 132.413C59.9178 131.854 59.9178 131.854 59.6139 131.284C59.1967 130.159 59.1484 129.684 59.541 128.569C59.8682 128.242 59.8682 128.242 60.9314 128.058Z" fill="#0051A8"/>
<path id="Vector_39" d="M162.409 100.987C163.247 101.089 163.247 101.089 163.82 101.477C164.72 102.783 164.6 104.382 164.597 105.914C164.597 106.29 164.598 106.667 164.599 107.054C164.556 107.959 164.556 107.959 164.229 108.286C162.91 108.372 162.41 108.382 161.284 107.632C161.132 107.027 161.132 107.027 161.094 106.303C161.072 105.912 161.072 105.912 161.05 105.513C161.039 105.241 161.029 104.968 161.018 104.688C161.002 104.415 160.985 104.143 160.968 103.862C160.896 102.359 160.896 102.359 160.957 101.743C161.611 101.089 161.611 101.089 162.409 100.987Z" fill="#0051A8"/>
<path id="Vector_40" d="M52.7527 195.308C53.3252 195.635 53.3252 195.635 53.9795 196.616C54.1265 197.558 54.1265 197.558 53.9795 198.579C53.2498 199.426 53.2498 199.426 52.2824 200.194C51.8099 200.583 51.8099 200.583 51.3278 200.98C50.3809 201.523 50.3809 201.523 49.485 201.484C48.7451 201.196 48.7451 201.196 48.0908 200.542C48.1189 199.28 48.3086 198.707 49.1336 197.741C49.4372 197.478 49.7409 197.214 50.0537 196.943C50.2182 196.786 50.3826 196.629 50.5521 196.467C51.8102 195.308 51.8102 195.308 52.7527 195.308Z" fill="#0051A8"/>
<path id="Vector_41" d="M109.738 52.5278C110.109 52.5214 110.479 52.5151 110.861 52.5086C111.885 52.6709 111.885 52.6709 112.678 53.2677C113.193 53.9795 113.193 53.9795 113.112 55.0427C113.031 55.3396 112.95 55.6365 112.866 55.9424C111.061 56.4582 109.51 56.8158 107.632 56.5967C106.794 55.8606 106.794 55.8606 106.323 54.9609C106.347 54.1416 106.552 53.7879 107.029 53.1322C107.917 52.4529 108.634 52.529 109.738 52.5278Z" fill="#0051A8"/>
<path id="Vector_42" d="M73.2813 180.259C73.8742 180.647 73.8742 180.647 74.2627 181.24C74.3999 182.297 74.3368 182.759 73.7592 183.668C71.9362 185.703 71.9362 185.703 70.5823 186.25C69.6826 186.147 69.6826 186.147 68.8852 185.616C68.374 184.839 68.374 184.839 68.4188 184.071C68.7733 182.981 69.2832 182.436 70.0916 181.629C70.3429 181.37 70.5942 181.112 70.8532 180.845C71.7657 180.17 72.1726 180.098 73.2813 180.259Z" fill="#0051A8"/>
<path id="Vector_43" d="M150.856 56.2082C151.099 56.2084 151.341 56.2086 151.591 56.2088C153.387 56.2236 153.387 56.2236 153.76 56.5967C153.851 57.6255 153.872 58.3345 153.406 59.2675C152.482 60.1519 151.766 60.0535 150.509 60.0522C149.907 60.0629 149.907 60.0629 149.293 60.0739C148.198 59.8682 148.198 59.8682 147.398 59.0835C146.89 58.2324 146.89 58.2324 146.91 57.5168C147.742 55.9093 149.299 56.1822 150.856 56.2082Z" fill="#0051A8"/>
<path id="Vector_44" d="M77.5342 172.734C78.2834 173.858 78.223 174.357 78.0172 175.658C77.7151 176.966 77.2005 177.953 76.2869 178.93C75.2999 179.409 74.6499 179.211 73.6084 178.95C73.1038 177.398 73.5073 176.543 74.2014 175.106C74.4677 174.542 74.4677 174.542 74.7394 173.966C75.4703 172.656 76.0872 172.59 77.5342 172.734Z" fill="#0051A8"/>
<path id="Vector_45" d="M67.8015 73.0563C68.758 73.2955 69.2893 73.5977 70.0098 74.2627C69.7675 76.2706 68.6041 77.301 67.0654 78.5156C65.9818 78.9041 65.9818 78.9041 65.1025 78.8428C64.4891 78.4952 64.4891 78.4952 64.1211 77.8613C63.8962 76.9821 63.8962 76.9821 64.1211 75.8984C65.1228 74.5258 66.1083 73.4145 67.8015 73.0563Z" fill="#0051A8"/>
<path id="Vector_46" d="M168.461 251.884C169.463 252.231 169.463 252.231 170.056 253.172C170.604 254.744 170.827 256.46 170.771 258.12C170.556 258.444 170.34 258.768 170.117 259.102C169.361 258.994 168.606 258.886 167.827 258.774C167.207 257.44 167.032 256.251 166.927 254.787C166.895 254.385 166.863 253.982 166.83 253.567C166.851 252.203 167.089 251.913 168.461 251.884Z" fill="#0051A8"/>
<path id="Vector_47" d="M76.5527 148.853C77.3681 149.499 77.3681 149.499 78.1476 150.366C78.4099 150.646 78.6722 150.927 78.9425 151.217C79.4971 152.124 79.4971 152.124 79.4587 153.195C79.3634 153.489 79.2681 153.784 79.1699 154.087C78.2349 154.554 77.5897 154.52 76.5527 154.414C75.717 153.827 75.717 153.827 74.9579 153.044C74.7023 152.79 74.4468 152.536 74.1835 152.274C73.5263 151.355 73.435 150.938 73.6084 149.834C74.5213 148.853 75.2442 148.674 76.5527 148.853Z" fill="#0051A8"/>
<path id="Vector_48" d="M59.357 87.2873C60.5225 87.3486 60.5225 87.3486 61.1768 88.0029C61.0911 90.1017 60.3952 92.3831 58.8867 93.8916C58.0688 93.8303 58.0688 93.8303 57.251 93.5645C56.4283 92.3305 56.5729 91.8004 56.7641 90.3888C57.1315 88.6633 57.5436 87.3862 59.357 87.2873Z" fill="#0051A8"/>
<path id="Vector_49" d="M65.3479 135.092C66.8226 135.574 67.494 136.488 68.374 137.729C68.8784 138.738 68.7985 139.564 68.7012 140.674C68.1287 141.328 68.1287 141.328 67.3926 141.655C66.7575 141.603 66.7575 141.603 66.084 141.328C65.5383 140.675 65.5383 140.675 65.0412 139.876C64.8746 139.614 64.708 139.351 64.5364 139.08C63.8263 137.889 63.7064 137.167 63.7939 135.767C64.4482 135.112 64.4482 135.112 65.3479 135.092Z" fill="#0051A8"/>
<path id="Vector_50" d="M56.9034 95.1389C57.9053 95.2002 57.9053 95.2002 58.5596 95.8545C58.8803 97.8619 58.4881 99.6274 57.5781 101.416C56.7807 101.968 56.7807 101.968 55.9424 102.07C55.1858 101.784 55.1858 101.784 54.6338 101.089C54.3898 99.0677 54.8278 97.3919 55.6152 95.5273C55.9424 95.2002 55.9424 95.2002 56.9034 95.1389Z" fill="#0051A8"/>
<path id="Vector_51" d="M88.3301 58.5596C88.6572 58.8867 88.6572 58.8867 88.7799 59.9704C88.6572 61.1768 88.6572 61.1768 87.962 61.9128C84.9913 63.7211 84.9913 63.7211 83.4229 63.4668C82.8299 63.0988 82.8299 63.0988 82.4414 62.4854C82.2778 61.5039 82.2778 61.5039 82.4414 60.5225C83.9279 59.2682 86.3721 58.3222 88.3301 58.5596Z" fill="#0051A8"/>
<path id="Vector_52" d="M79.4971 155.416C80.3737 155.827 80.6452 156.189 81.1328 157.031C81.2632 158.198 81.2632 158.198 81.2555 159.505C81.2593 159.725 81.2631 159.945 81.267 160.172C81.2613 161.136 81.241 161.786 80.6753 162.585C80.1514 162.92 80.1514 162.92 79.4971 162.859C78.8428 162.593 78.8428 162.593 77.8613 161.938C77.7621 160.99 77.7246 160.126 77.7387 159.178C77.733 158.797 77.733 158.797 77.7271 158.408C77.7368 156.533 77.7368 156.533 78.3193 155.804C78.8428 155.396 78.8428 155.396 79.4971 155.416Z" fill="#0051A8"/>
<path id="Vector_53" d="M168.154 86.3672C168.768 86.7557 168.768 86.7557 169.136 87.3486C169 88.6327 168.578 89.4659 167.848 90.5179C167.59 90.8943 167.59 90.8943 167.327 91.2783C166.846 91.9287 166.846 91.9287 166.191 92.583C165.374 92.6648 165.374 92.6648 164.556 92.583C163.901 91.9287 163.901 91.9287 163.738 91.1108C163.982 89.4022 164.857 88.0793 165.864 86.6943C166.698 86.2774 167.23 86.277 168.154 86.3672Z" fill="#0051A8"/>
<path id="Vector_54" d="M131.514 55.6152C133.409 55.6572 135.33 55.8161 137.075 56.5967C137.527 57.5004 137.465 58.2152 137.402 59.2139C136.748 59.8682 136.748 59.8682 135.726 59.9704C133.977 59.8294 132.485 59.4723 131.166 58.2733C130.766 57.3668 130.885 56.8717 131.187 55.9424C131.294 55.8344 131.402 55.7265 131.514 55.6152Z" fill="#0051A8"/>
<path id="Vector_55" d="M124.828 53.9182C126.496 53.9392 128.33 54.0671 129.551 55.2881C129.715 56.3286 129.629 56.7949 129.081 57.7008C127.97 58.4053 127.283 58.2922 126.013 58.0855C124.556 57.7185 123.834 57.182 123.008 55.9424C123.239 54.0018 123.239 54.0018 124.828 53.9182Z" fill="#0051A8"/>
<path id="Vector_56" d="M79.9878 62.1991C80.8057 62.4854 80.8057 62.4854 81.4395 63.0579C81.7871 63.7939 81.7871 63.7939 81.6849 64.5709C80.7126 66.0833 79.2857 67.0951 77.616 67.7402C76.8799 67.7197 76.8799 67.7197 76.1234 67.3517C75.5713 66.7383 75.5713 66.7383 75.4588 65.9575C75.6048 64.8474 75.9569 64.5871 76.8185 63.8962C77.0501 63.706 77.2816 63.5158 77.5201 63.3198C79.0578 62.1526 79.0578 62.1526 79.9878 62.1991Z" fill="#0051A8"/>
<path id="Vector_57" d="M96.1816 55.9424C96.7932 56.5539 96.6044 57.4137 96.6481 58.2299C96.5088 58.8867 96.5088 58.8867 95.9657 59.4375C95.0742 59.939 94.3279 60.1005 93.3191 60.2567C92.9969 60.3085 92.6747 60.3604 92.3428 60.4138C92.0982 60.4497 91.8536 60.4855 91.6016 60.5225C90.2732 58.8425 90.2732 58.8425 90.3543 57.6804C91.7048 55.9573 94.1206 55.7706 96.1816 55.9424Z" fill="#0051A8"/>
<path id="Vector_58" d="M156.704 57.251C158.585 57.3957 160.097 58.1236 161.611 59.2139C162.184 60.0522 162.184 60.0522 162.266 60.8496C161.959 61.6061 161.959 61.6061 161.284 62.1582C159.299 62.4204 158.022 61.8705 156.418 60.7474C155.853 59.8995 155.946 59.2246 156.05 58.2324C156.266 57.9085 156.482 57.5847 156.704 57.251Z" fill="#0051A8"/>
<path id="Vector_59" d="M45.1056 201.764C45.335 201.765 45.5644 201.767 45.8008 201.769C46.0302 201.767 46.2596 201.765 46.496 201.764C47.1094 201.851 47.1094 201.851 47.7637 202.505C47.7022 204.051 46.922 204.899 45.9439 206.042C45.6736 206.361 45.4033 206.681 45.1248 207.01C44.916 207.25 44.7073 207.491 44.4922 207.739C43.7152 207.637 43.7152 207.637 42.8564 207.412C42.2021 206.431 42.2021 206.431 42.243 205.511C42.6226 204.128 43.514 201.989 45.1056 201.764Z" fill="#0051A8"/>
<path id="Vector_60" d="M104.36 53.9795C104.98 54.5994 104.746 55.475 104.763 56.2989C104.688 56.9238 104.688 56.9238 104.033 57.5781C102.545 58.078 100.958 58.4982 99.4531 57.9053C98.7481 56.8478 98.6455 56.5144 98.7988 55.2881C99.2888 54.5661 99.6474 54.3496 100.475 54.0817C101.767 53.9413 103.063 53.8883 104.36 53.9795Z" fill="#0051A8"/>
<path id="Vector_61" d="M118.36 52.837C119.528 53.0975 120.593 53.5252 121.699 53.9795C121.699 54.7352 121.699 55.4909 121.699 56.2695C120.12 57.1646 118.511 56.958 116.792 56.5967C115.811 55.9424 115.811 55.9424 115.643 55.306C115.59 54.6457 115.537 53.9855 115.483 53.3252C116.601 52.5804 117.069 52.6406 118.36 52.837Z" fill="#0051A8"/>
<path id="Vector_62" d="M169.361 69.7849C169.735 69.8962 169.735 69.8962 170.117 70.0098C170.862 71.9256 171.28 73.5089 171.099 75.5713C170.883 75.7872 170.667 76.0031 170.444 76.2256C169.29 76.201 168.695 76.1121 167.868 75.285C167.326 73.7787 167.25 72.2467 167.5 70.6641C168.137 69.7917 168.259 69.6568 169.361 69.7849Z" fill="#0051A8"/>
<path id="Vector_63" d="M162.859 92.6035C163.574 92.9102 163.574 92.9102 163.901 93.2373C163.885 95.4945 163.573 97.1645 161.938 98.7988C161.141 98.7988 161.141 98.7988 160.303 98.4717C159.536 97.4086 159.274 96.8348 159.464 95.5273C160.219 94.0782 161.092 92.5642 162.859 92.6035Z" fill="#0051A8"/>
<path id="Vector_64" d="M140.347 57.251C141.907 57.485 143.411 57.7958 144.927 58.2324C145.385 59.148 145.337 59.8371 145.254 60.8496C144.906 61.463 144.906 61.463 144.272 61.8311C142.886 62.0141 142.15 61.9166 140.899 61.279C139.974 60.4832 139.57 60.0877 139.365 58.8867C139.815 57.9666 139.815 57.9666 140.347 57.251Z" fill="#0051A8"/>
<path id="Vector_65" d="M55.4721 103.931C56.5967 104.033 56.5967 104.033 57.251 104.36C57.7423 105.764 57.5294 106.607 56.9443 107.918C56.7241 108.37 56.5008 108.821 56.2695 109.268C55.1522 109.174 54.7041 109.007 53.8773 108.225C53.2245 107.137 53.1393 106.59 53.3252 105.342C53.8672 104.13 54.1304 104.049 55.4721 103.931Z" fill="#0051A8"/>
<path id="Vector_66" d="M165.21 243.071C165.75 243.071 166.29 243.071 166.846 243.071C166.658 244.009 166.564 244.335 165.864 245.034C165.918 245.966 165.918 245.966 166.13 246.997C166.193 247.348 166.256 247.699 166.32 248.06C166.476 248.942 166.476 248.942 166.846 249.614C167.385 249.722 167.925 249.83 168.481 249.941C168.266 248.106 168.05 246.271 167.827 244.38C168.867 245.94 169.2 247.587 169.034 249.451C168.809 250.269 168.809 250.269 168.481 250.596C167.704 250.698 167.704 250.698 166.846 250.596C165.429 249.033 164.832 246.793 164.801 244.707C164.883 243.726 164.883 243.726 165.21 243.071Z" fill="#0051A8"/>
<path id="Vector_67" d="M146.164 204.341C147.892 204.549 148.69 205.619 149.851 206.837C150.518 207.782 150.68 208.128 150.529 209.252C150.408 209.617 150.286 209.981 150.161 210.356C149.126 210.615 149.126 210.615 147.871 210.684C146.943 210.057 146.943 210.057 146.113 209.171C145.833 208.883 145.554 208.595 145.267 208.299C144.589 207.398 144.342 206.89 144.272 205.776C144.754 204.728 145.013 204.501 146.164 204.341ZM144.927 205.449C144.872 206.294 144.872 206.294 144.927 207.085C145.143 207.085 145.359 207.085 145.581 207.085C145.689 207.409 145.797 207.733 145.908 208.066C146.44 208.625 146.985 209.171 147.544 209.702C147.652 209.81 147.76 209.918 147.871 210.029C148.689 210.084 148.689 210.084 149.507 210.029C149.615 209.921 149.723 209.813 149.834 209.702C149.834 208.101 149.555 207.314 148.444 206.144C147.301 205.1 146.209 204.167 144.927 205.449Z" fill="#0051A8"/>
<path id="Vector_68" d="M162.409 100.987C163.247 101.089 163.247 101.089 163.82 101.477C164.72 102.783 164.6 104.382 164.597 105.914C164.597 106.29 164.598 106.667 164.599 107.054C164.556 107.959 164.556 107.959 164.229 108.286C162.91 108.372 162.41 108.382 161.284 107.632C161.132 107.027 161.132 107.027 161.094 106.303C161.072 105.912 161.072 105.912 161.05 105.513C161.039 105.241 161.029 104.968 161.018 104.688C161.002 104.415 160.985 104.143 160.968 103.862C160.896 102.359 160.896 102.359 160.957 101.743C161.611 101.089 161.611 101.089 162.409 100.987ZM161.611 101.743C161.603 102.663 161.596 103.583 161.591 104.503C161.588 104.766 161.585 105.029 161.583 105.299C161.58 105.968 161.594 106.636 161.611 107.305C161.979 107.748 161.979 107.748 162.94 107.652C163.416 107.642 163.416 107.642 163.901 107.632C164.249 105.601 164.293 104.022 163.574 102.07C162.766 101.439 162.541 101.278 161.611 101.743Z" fill="#0051A8"/>
<path id="Vector_69" d="M168.154 86.3672C168.768 86.7557 168.768 86.7557 169.136 87.3486C169.074 88.2074 169.074 88.2074 168.809 88.9844C168.485 89.1463 168.485 89.1463 168.154 89.3115C168.154 88.6638 168.154 88.016 168.154 87.3486C167.507 87.3486 166.859 87.3486 166.191 87.3486C166.097 87.5443 166.002 87.74 165.905 87.9416C165.537 88.6572 165.537 88.6572 164.883 89.6387C164.754 90.3989 164.642 91.1625 164.556 91.9287C166.005 91.5334 166.84 91.1054 167.827 89.9658C167.143 91.9135 167.143 91.9135 166.191 92.583C165.353 92.6852 165.353 92.6852 164.556 92.583C163.901 91.9287 163.901 91.9287 163.738 91.1108C163.982 89.4022 164.857 88.0793 165.864 86.6943C166.698 86.2774 167.23 86.277 168.154 86.3672Z" fill="#0051A8"/>
<path id="Vector_70" d="M169.361 69.7849C169.735 69.8962 169.735 69.8962 170.117 70.0098C170.862 71.9256 171.28 73.5089 171.099 75.5713C170.883 75.7872 170.667 76.0031 170.444 76.2256C169.29 76.201 168.695 76.1121 167.868 75.285C167.326 73.7787 167.25 72.2467 167.5 70.6641C168.137 69.7917 168.259 69.6568 169.361 69.7849ZM168.481 70.3369C167.73 70.9346 167.73 70.9346 167.823 71.8193C167.858 72.1398 167.893 72.4603 167.929 72.7905C167.962 73.111 167.994 73.4315 168.028 73.7617C168.11 74.5855 168.11 74.5855 168.481 75.2441C169.472 75.4593 169.472 75.4593 170.444 75.5713C170.462 75.0057 170.475 74.44 170.485 73.8742C170.493 73.5592 170.5 73.2442 170.508 72.9196C170.442 71.9307 170.205 71.2308 169.79 70.3369C169.358 70.3369 168.926 70.3369 168.481 70.3369Z" fill="#0051A8"/>
<path id="Vector_71" d="M160.753 161.836C161.611 161.938 161.611 161.938 162.225 162.47C162.72 163.515 162.576 164.113 162.266 165.21C162.05 165.426 161.834 165.642 161.611 165.864C161.611 164.893 161.611 163.921 161.611 162.92C161.072 162.812 160.532 162.704 159.976 162.593C159.912 162.865 159.849 163.137 159.784 163.417C159.656 163.95 159.656 163.95 159.526 164.494C159.442 164.847 159.359 165.2 159.273 165.564C158.994 166.519 158.994 166.519 158.34 167.5C158.694 162.107 158.694 162.107 160.753 161.836Z" fill="#0051A8"/>
<path id="Vector_72" d="M130.921 190.993C132.449 191.469 133.108 192.185 134.174 193.341C134.863 194.083 135.611 194.7 136.421 195.308C136.313 195.739 136.205 196.171 136.094 196.616C135.986 196.292 135.878 195.968 135.767 195.635C135.214 195.062 135.214 195.062 134.54 194.51C134.304 194.311 134.067 194.111 133.824 193.906C133.601 193.721 133.379 193.535 133.149 193.345C132.853 193.088 132.556 192.832 132.25 192.568C131.541 192.056 131.062 191.836 130.205 191.709C129.719 192.519 129.719 192.519 129.224 193.345C128.999 192.752 128.999 192.752 128.896 192.036C129.432 191.065 129.818 191.058 130.921 190.993Z" fill="#0051A8"/>
<path id="Vector_73" d="M76.8799 149.507C78.9348 151.062 78.9348 151.062 79.4971 152.124C79.4357 153.167 79.4357 153.167 79.1699 154.087C78.2249 154.559 77.6008 154.537 76.5527 154.414C75.6122 153.596 75.6122 153.596 74.917 152.778C75.025 152.562 75.1329 152.346 75.2441 152.124C75.4196 152.34 75.595 152.556 75.7758 152.778C76.5199 153.534 76.5199 153.534 77.616 153.514C77.9129 153.487 78.2097 153.46 78.5156 153.433C78.3498 151.981 77.8051 151.265 76.8799 150.161C76.8799 149.945 76.8799 149.729 76.8799 149.507Z" fill="#0051A8"/>
<path id="Vector_74" d="M74.5898 67.3926C74.6978 67.8244 74.8058 68.2562 74.917 68.7012C74.7011 68.7012 74.4852 68.7012 74.2627 68.7012C74.0468 68.3773 73.8309 68.0534 73.6084 67.7197C72.089 68.6385 71.0224 69.5182 70.0098 70.9912C70.0208 71.7508 70.0208 71.7508 70.3369 72.2998C70.013 72.2998 69.6892 72.2998 69.3555 72.2998C69.0935 71.5893 69.0935 71.5893 69.0283 70.6641C69.689 69.8002 69.689 69.8002 70.6027 68.9465C70.9017 68.6615 71.2007 68.3764 71.5088 68.0827C72.6981 67.0451 73.086 67.0364 74.5898 67.3926Z" fill="#0051A8"/>
<path id="Vector_75" d="M164.229 118.428C165.664 118.491 166.332 118.576 167.386 119.588C167.633 119.934 167.88 120.28 168.134 120.636C168.386 120.978 168.639 121.321 168.899 121.674C169.468 122.691 169.6 123.179 169.463 124.316C169.139 124.316 168.815 124.316 168.481 124.316C168.468 123.993 168.454 123.669 168.441 123.335C168.205 121.733 167.408 120.467 166.191 119.409C164.963 119.19 164.963 119.19 163.901 119.409C164.009 119.085 164.117 118.761 164.229 118.428Z" fill="#0051A8"/>
<path id="Vector_76" d="M156.486 218.101C157.358 218.208 157.358 218.208 157.996 218.806C158.278 219.198 158.278 219.198 158.565 219.598C158.85 219.986 158.85 219.986 159.141 220.38C159.587 221.059 159.961 221.726 160.303 222.461C159.193 221.998 158.635 221.466 157.931 220.498C157.761 220.269 157.59 220.039 157.415 219.803C157.031 219.189 157.031 219.189 157.031 218.535C155.947 219.094 155.947 219.094 155.825 220.212C155.791 220.522 155.757 220.833 155.723 221.152C155.507 221.044 155.291 220.936 155.068 220.825C155.396 218.254 155.396 218.254 156.486 218.101Z" fill="#0051A8"/>
<path id="Vector_77" d="M77.5342 172.734C78.2199 173.763 78.2759 173.886 78.1271 175.024C78.1023 175.247 78.0774 175.47 78.0517 175.699C77.8613 176.333 77.8613 176.333 76.8799 177.314C77.0958 176.019 77.3117 174.723 77.5342 173.389C75.9559 173.804 75.9559 173.804 74.917 175.024C75.0397 174.063 75.0397 174.063 75.2441 173.062C76.0732 172.647 76.6163 172.643 77.5342 172.734Z" fill="#0051A8"/>
<path id="Vector_78" d="M55.6152 113.521C55.7232 113.521 55.8312 113.521 55.9424 113.521C55.9424 114.708 55.9424 115.896 55.9424 117.119C56.914 117.281 56.914 117.281 57.9053 117.446C57.7973 117.662 57.6894 117.878 57.5781 118.101C55.697 117.855 55.697 117.855 54.9609 117.119C54.8092 114.73 54.8092 114.73 55.6152 113.521Z" fill="#0051A8"/>
<path id="Vector_79" d="M165.21 243.071C165.75 243.071 166.29 243.071 166.846 243.071C166.635 244.211 166.197 245.065 165.537 246.016C165.321 246.016 165.105 246.016 164.883 246.016C164.842 243.807 164.842 243.807 165.21 243.071Z" fill="#0051A8"/>
<path id="Vector_80" d="M169.892 125.502C170.771 125.625 170.771 125.625 171.508 126.341C172.065 127.237 172.288 127.858 172.407 128.896C172.205 128.64 172.002 128.384 171.794 128.12C170.922 127.042 170.487 126.55 169.136 126.279C168.92 126.711 168.704 127.143 168.481 127.588C168.825 125.675 168.825 125.675 169.892 125.502Z" fill="#0051A8"/>
<path id="Vector_81" d="M151.47 210.684C152.523 210.737 152.816 211.051 153.55 211.83C153.808 212.16 154.066 212.49 154.332 212.831C154.594 213.162 154.855 213.493 155.125 213.834C155.322 214.09 155.519 214.346 155.723 214.609C155.615 214.825 155.507 215.041 155.396 215.264C155.245 215.09 155.095 214.916 154.941 214.737C153.259 212.614 153.259 212.614 151.143 211.011C151.251 210.903 151.358 210.795 151.47 210.684Z" fill="#0051A8"/>
<path id="Vector_82" d="M168.154 86.3672C168.768 86.7557 168.768 86.7557 169.136 87.3486C169.074 88.2074 169.074 88.2074 168.809 88.9844C168.485 89.1463 168.485 89.1463 168.154 89.3115C168.154 88.6638 168.154 88.016 168.154 87.3486C167.291 87.4566 166.427 87.5646 165.537 87.6758C165.645 87.3519 165.753 87.028 165.864 86.6943C166.698 86.2774 167.23 86.277 168.154 86.3672Z" fill="#0051A8"/>
<path id="Vector_83" d="M170.771 77.8613C170.879 78.0772 170.987 78.2932 171.099 78.5156C170.127 78.3537 170.127 78.3537 169.136 78.1885C168.92 79.1601 168.704 80.1317 168.481 81.1328C168.373 81.1328 168.266 81.1328 168.154 81.1328C168.191 80.5941 168.233 80.0557 168.277 79.5175C168.3 79.2177 168.323 78.9178 168.346 78.6089C168.391 78.3622 168.435 78.1155 168.481 77.8613C169.364 77.4201 169.84 77.5985 170.771 77.8613Z" fill="#0051A8"/>
<path id="Vector_84" d="M135.112 56.9238C135.766 56.9099 136.421 56.9105 137.075 56.9238C137.402 57.251 137.402 57.251 137.423 58.2529C137.416 58.57 137.409 58.8871 137.402 59.2139C136.971 59.2139 136.539 59.2139 136.094 59.2139C136.114 58.9575 136.134 58.7011 136.155 58.4369C136.135 58.1535 136.115 57.8701 136.094 57.5781C135.77 57.3622 135.446 57.1463 135.112 56.9238Z" fill="#0051A8"/>
<path id="Vector_85" d="M132.822 171.426C133.936 171.772 134.79 172.083 135.767 172.734C135.828 173.757 135.828 173.757 135.767 174.697C135.443 174.859 135.443 174.859 135.112 175.024C135.001 174.478 135.001 174.478 134.887 173.92C134.587 172.682 134.587 172.682 133.599 172.264C133.343 172.203 133.086 172.143 132.822 172.08C132.822 171.864 132.822 171.648 132.822 171.426Z" fill="#0051A8"/>
<path id="Vector_86" d="M66.4111 73.6084C66.6271 73.8243 66.843 74.0402 67.0654 74.2627C66.8563 74.4044 66.6471 74.5461 66.4316 74.6921C65.6693 75.2155 65.6693 75.2155 65.4297 76.2256C65.2138 76.2256 64.9979 76.2256 64.7754 76.2256C64.5595 76.6574 64.3436 77.0893 64.1211 77.5342C63.978 76.8594 63.978 76.8594 64.1211 75.8984C64.8149 75.0568 65.5953 74.3306 66.4111 73.6084Z" fill="#0051A8"/>
<path id="Vector_87" d="M159.976 157.358C160.299 157.358 160.623 157.358 160.957 157.358C160.957 158.222 160.957 159.086 160.957 159.976C160.633 160.138 160.633 160.138 160.303 160.303C159.819 159.335 159.956 158.424 159.976 157.358Z" fill="#0051A8"/>
<path id="Vector_88" d="M50.3809 199.888C50.7047 199.888 51.0286 199.888 51.3623 199.888C51.1374 200.522 51.1374 200.522 50.708 201.196C49.8492 201.442 49.8492 201.442 49.0723 201.523C48.8563 201.092 48.6404 200.66 48.418 200.215C49.2277 200.539 49.2277 200.539 50.0537 200.869C50.1617 200.545 50.2696 200.221 50.3809 199.888Z" fill="#0051A8"/>
<path id="Vector_89" d="M130.532 170.771C131.555 170.894 131.555 170.894 132.495 171.099C132.387 171.315 132.279 171.53 132.168 171.753C131.52 171.753 130.872 171.753 130.205 171.753C130.097 172.401 129.989 173.048 129.878 173.716C129.77 173.716 129.662 173.716 129.551 173.716C129.796 171.508 129.796 171.508 130.532 170.771Z" fill="#0051A8"/>
<path id="Vector_90" d="M68.7012 183.203C68.8091 183.203 68.9171 183.203 69.0283 183.203C69.1093 183.514 69.1903 183.824 69.2737 184.144C69.5798 185.194 69.5798 185.194 70.3778 185.616C70.5802 185.683 70.7827 185.751 70.9912 185.82C70.4187 186.066 70.4187 186.066 69.6826 186.147C68.9261 185.616 68.9261 185.616 68.374 184.839C68.4558 183.939 68.4558 183.939 68.7012 183.203Z" fill="#0051A8"/>
<path id="Vector_91" d="M77.8613 63.1396C78.0772 63.2476 78.2932 63.3556 78.5156 63.4668C77.5914 64.4252 76.6221 65.2667 75.5713 66.084C75.629 65.3055 75.7994 64.8728 76.3572 64.3243C76.8493 63.9179 77.3547 63.5277 77.8613 63.1396Z" fill="#0051A8"/>
<path id="Vector_92" d="M73.9355 175.679C74.0435 175.679 74.1515 175.679 74.2627 175.679C74.3707 176.65 74.4786 177.622 74.5898 178.623C74.158 178.623 73.7262 178.623 73.2812 178.623C73.5675 176.415 73.5675 176.415 73.9355 175.679Z" fill="#0051A8"/>
<path id="Vector_93" d="M59.541 128.896C60.0808 128.896 60.6206 128.896 61.1768 128.896C60.529 129.868 60.529 129.868 59.8682 130.859C59.6522 130.643 59.4363 130.428 59.2139 130.205C59.3365 129.51 59.3365 129.51 59.541 128.896Z" fill="#0051A8"/>
<path id="Vector_94" d="M140.347 173.716C141.804 174.04 141.804 174.04 143.291 174.37C142.31 175.024 142.31 175.024 141.267 174.902C140.963 174.834 140.66 174.767 140.347 174.697C140.347 174.373 140.347 174.05 140.347 173.716Z" fill="#0051A8"/>
<path id="Vector_95" d="M69.0283 141.982C70.0098 142.31 70.0098 142.31 70.3369 142.964C69.7971 143.396 69.2573 143.828 68.7012 144.272C68.374 143.618 68.374 143.618 68.374 142.637C68.5899 142.421 68.8059 142.205 69.0283 141.982Z" fill="#0051A8"/>
<path id="Vector_96" d="M59.8682 128.242C60.6239 128.242 61.3796 128.242 62.1582 128.242C62.2662 128.674 62.3741 129.106 62.4854 129.551C62.3774 129.335 62.2694 129.119 62.1582 128.896C61.4025 129.004 60.6468 129.112 59.8682 129.224C59.8682 128.9 59.8682 128.576 59.8682 128.242Z" fill="#0051A8"/>
<path id="Vector_97" d="M121.372 55.2881C121.48 55.612 121.588 55.9358 121.699 56.2695C120.462 56.8705 119.754 56.9756 118.428 56.5967C118.428 56.4887 118.428 56.3808 118.428 56.2695C118.792 56.229 119.156 56.1886 119.532 56.1469C120.728 56.058 120.728 56.058 121.372 55.2881Z" fill="#0051A8"/>
<path id="Vector_98" d="M49.0723 197.598C49.2972 198.15 49.2972 198.15 49.3994 198.906C48.9291 199.806 48.9291 199.806 48.418 200.542C48.1931 199.99 48.1931 199.99 48.0908 199.233C48.5611 198.334 48.5611 198.334 49.0723 197.598Z" fill="#0051A8"/>
<path id="Vector_99" d="M69.0283 70.6641C69.6761 70.9879 69.6761 70.9879 70.3369 71.3184C70.229 71.7502 70.121 72.182 70.0098 72.627C69.6859 72.411 69.362 72.1951 69.0283 71.9727C69.0283 71.5408 69.0283 71.109 69.0283 70.6641Z" fill="#0051A8"/>
<path id="Vector_100" d="M232.101 120.265C233.566 121.36 234.903 122.551 236.207 123.833C236.46 124.082 236.713 124.33 236.973 124.587C240.101 127.854 242.011 131.56 243.077 135.937C243.669 138.251 243.427 140.764 243.404 143.135C243.592 143.212 243.78 143.29 243.973 143.369C244.874 143.881 245.394 144.481 246.068 145.267C247.59 146.999 249.191 148.626 250.834 150.243C251.298 150.703 251.762 151.162 252.226 151.622C252.719 152.109 253.211 152.596 253.704 153.082C254.735 154.101 255.764 155.122 256.793 156.144C256.967 156.317 257.142 156.491 257.322 156.669C257.678 157.023 258.035 157.377 258.391 157.731C260.781 160.105 263.172 162.477 265.57 164.843C267.194 166.447 268.816 168.054 270.433 169.665C271.286 170.515 272.141 171.363 273.001 172.207C273.958 173.147 274.907 174.094 275.855 175.041C276.139 175.317 276.423 175.593 276.715 175.878C278.272 177.448 279.148 178.529 279.39 180.757C279.104 181.902 279.104 181.902 278.736 182.72C281.96 186.003 281.96 186.003 285.363 189.096C289.021 192.262 289.021 192.262 289.295 194.623C289.362 196.407 289.089 197.495 288.223 199.077C288.481 200.673 289.313 202.135 289.985 203.593C292.202 208.524 291.995 213.756 290.996 218.941C289.014 227.49 282.963 233.418 276.194 238.511C270.261 242.994 265.784 247.77 264.464 255.368C263.571 262.35 264.049 269.574 264.014 276.611C266.735 276.757 269.471 276.87 272.152 277.388C275.103 277.942 278.087 278.064 280.044 280.537C280.39 282.211 280.35 283.604 279.492 285.097C276.002 287.27 271.389 287.767 267.356 288.097C261.89 288.544 256.406 288.46 250.928 288.478C230.978 288.49 230.959 287.795 226.719 285.117C225.757 283.962 225.619 282.989 225.576 281.539C226.104 279.342 228.176 278.73 230.088 278.166C236.49 276.351 242.967 276.203 249.62 275.957C249.62 248.427 249.62 220.898 249.62 192.534C248.756 192.426 247.892 192.318 247.002 192.207C246.209 191.766 246.209 191.766 245.592 191.205C245.384 191.026 245.176 190.847 244.962 190.662C243.338 188.563 243.169 186.027 242.893 183.476C242.819 182.813 242.744 182.151 242.666 181.489C242.635 181.199 242.604 180.909 242.571 180.61C242.203 178.543 241.311 177.636 239.662 176.422C239.242 176.102 238.822 175.782 238.402 175.462C238.194 175.305 237.987 175.149 237.773 174.987C236.984 174.385 236.216 173.761 235.45 173.13C235.023 172.779 235.023 172.779 234.587 172.421C234.038 171.967 233.489 171.514 232.941 171.06C232.707 170.867 232.474 170.675 232.234 170.476C231.994 170.277 231.754 170.079 231.507 169.875C231.016 169.47 230.523 169.067 230.029 168.666C229.059 167.878 228.115 167.102 227.224 166.225C225.453 164.531 223.809 164.53 221.465 164.487C215.797 164.376 210.8 161.614 206.081 158.751C196.376 152.863 192.213 137.019 197.942 127.124C201.527 121.542 206.878 117.594 213.398 116.147C220 114.914 226.541 116.509 232.101 120.265Z" fill="#0051A8"/>
<path id="Vector_101" d="M255.835 193.188C260.717 193.188 260.717 193.188 262.932 194.985C263.987 195.674 264.699 195.628 265.911 195.431C266.905 195.045 267.715 194.44 268.594 193.843C268.843 194.095 269.092 194.348 269.349 194.608C270.277 195.548 271.208 196.486 272.139 197.423C272.54 197.828 272.942 198.234 273.343 198.64C273.92 199.226 274.5 199.809 275.08 200.392C275.257 200.573 275.435 200.754 275.618 200.94C277.108 202.431 278.432 203.463 280.611 203.684C282.015 203.633 283.313 203.152 284.625 202.676C286.401 205.316 287.402 207.66 287.569 210.854C287.586 211.151 287.603 211.447 287.621 211.753C287.826 218.469 285.038 224.52 280.516 229.372C279.138 230.725 277.633 231.904 276.119 233.1C275.456 233.651 274.795 234.203 274.135 234.757C272.937 235.76 271.728 236.74 270.496 237.701C264.32 242.664 261.253 248.734 260.291 256.524C259.886 260.302 259.899 264.105 259.864 267.901C259.853 268.719 259.841 269.538 259.83 270.356C259.802 272.332 259.78 274.308 259.761 276.284C258.466 276.284 257.17 276.284 255.835 276.284C255.835 248.863 255.835 221.441 255.835 193.188Z" fill="#FEFEFE"/>
<path id="Vector_102" d="M227.932 122.857C233.194 125.938 237.202 130.646 238.824 136.592C239.97 142.044 239.134 147.286 236.198 152.018C233.451 155.982 229.897 159.134 225.084 160.146C219.848 160.82 214.024 158.937 209.789 155.955C209.211 155.506 208.638 155.05 208.072 154.585C207.785 154.352 207.498 154.118 207.203 153.878C203.52 150.734 199.993 145.697 199.49 140.748C199.197 135.455 199.861 131.3 203.281 127.046C210.023 119.855 219.302 118.071 227.932 122.857Z" fill="#1BC3E4"/>
<path id="Vector_103" d="M242.75 148.369C243.505 148.909 244.261 149.449 245.04 150.005C243.014 155.466 239.335 160.522 234.51 163.765C234.311 163.903 234.113 164.04 233.908 164.181C233.33 164.554 233.33 164.554 232.281 165.054C231.12 164.792 230.633 164.054 229.991 163.091C230.236 162.936 230.482 162.781 230.735 162.622C236.441 158.935 239.715 154.347 242.75 148.369Z" fill="#F9FAFA"/>
<path id="Vector_104" d="M257.798 177.158C258.923 177.792 258.923 177.792 259.761 178.794C260.024 179.832 260.01 180.698 259.761 181.738C259.087 182.74 259.087 182.74 258.126 183.374C256.635 183.645 256.028 183.491 254.731 182.699C253.701 181.546 253.491 180.988 253.545 179.448C254.667 177.36 255.438 176.922 257.798 177.158Z" fill="#FBFBFB"/>
<path id="Vector_105" d="M275.792 185.664C276.93 186.119 277.257 186.525 277.754 187.627C277.541 187.836 277.328 188.046 277.108 188.262C275.503 189.851 273.959 191.447 272.52 193.188C271.662 192.845 271.279 192.649 270.803 191.839C270.722 191.636 270.641 191.434 270.557 191.225C270.801 190.988 270.801 190.988 271.049 190.745C272.434 189.378 273.755 187.98 275.024 186.504C275.271 186.216 275.523 185.932 275.792 185.664Z" fill="#F8F9F9"/>
</g>
<defs>
<clipPath id="clip0_0_4">
<rect width="335" height="335" fill="white"/>
</clipPath>
</defs>
</svg>
