<svg width="26" height="26" viewBox="0 0 26 26" fill="none" xmlns="http://www.w3.org/2000/svg">
<g clip-path="url(#clip0_592_754)">
<path d="M20.5053 0.00134277H5.49329C2.45893 0.00134277 -0.000907898 2.46128 -0.000907898 5.49564V20.5075C-0.000907898 23.5419 2.45893 26.0018 5.49329 26.0018H20.5053C23.5396 26.0018 25.9995 23.5419 25.9995 20.5075V5.49564C25.9995 2.46128 23.5396 0.00134277 20.5053 0.00134277Z" fill="url(#paint0_linear_592_754)"/>
<g filter="url(#filter0_d_592_754)">
<path fill-rule="evenodd" clip-rule="evenodd" d="M13.5 4C8.80559 4 5 7.80476 5 12.4982V21H13.4982C18.1937 21 22 17.1935 22 12.4991C22 7.80569 18.1944 4 13.5 4ZM11.3302 13.9358L10.2135 10.1089C10.1006 9.71994 9.99392 9.44595 9.89354 9.28704C9.79316 9.124 9.60078 9.04247 9.31637 9.04247C9.10306 9.04247 8.92321 9.11557 8.77684 9.26207C8.63045 9.40841 8.55726 9.5736 8.55726 9.75764C8.55726 9.90399 8.62626 10.1695 8.76428 10.5543L10.1508 14.6573C10.1884 14.7661 10.2407 14.9146 10.3076 15.1028C10.3745 15.2868 10.4519 15.4479 10.5397 15.5858C10.6276 15.7197 10.7363 15.8221 10.866 15.8932C10.9998 15.9686 11.1608 16.0061 11.349 16.0061C11.7171 16.0061 11.9743 15.889 12.1207 15.6549C12.2671 15.4164 12.403 15.0651 12.5285 14.6009L13.4758 11.2632L14.4544 14.6009C14.5381 14.902 14.6155 15.1467 14.6867 15.3349C14.7578 15.5231 14.8664 15.682 15.0128 15.8116C15.1635 15.9413 15.3684 16.0061 15.6277 16.0061C15.8786 16.0061 16.0751 15.9456 16.2174 15.8242C16.3638 15.703 16.4704 15.5649 16.5374 15.4102C16.6042 15.2554 16.6983 15.0045 16.8197 14.6573L18.2186 10.5543C18.3483 10.1988 18.4131 9.93325 18.4131 9.75764C18.4131 9.56517 18.3379 9.39799 18.1874 9.25578C18.0367 9.11358 17.8591 9.04247 17.654 9.04247C17.4491 9.04247 17.2923 9.09059 17.1836 9.18667C17.0748 9.27877 16.9974 9.38742 16.9514 9.51292C16.9054 9.63428 16.8447 9.83288 16.7695 10.1089L15.6402 13.9358L14.624 10.3787C14.5193 10.0232 14.4377 9.77435 14.3792 9.63214C14.3206 9.4858 14.2183 9.35186 14.0719 9.23065C13.9296 9.10515 13.7309 9.04247 13.4758 9.04247C13.2249 9.04247 13.0262 9.10515 12.8798 9.23065C12.7376 9.35186 12.6393 9.48151 12.585 9.61957C12.5348 9.7535 12.4553 10.0065 12.3465 10.3787L11.3302 13.9358Z" fill="white"/>
</g>
</g>
<defs>
<filter id="filter0_d_592_754" x="1" y="2" width="25" height="25" filterUnits="userSpaceOnUse" color-interpolation-filters="sRGB">
<feFlood flood-opacity="0" result="BackgroundImageFix"/>
<feColorMatrix in="SourceAlpha" type="matrix" values="0 0 0 0 0 0 0 0 0 0 0 0 0 0 0 0 0 0 127 0" result="hardAlpha"/>
<feOffset dy="2"/>
<feGaussianBlur stdDeviation="2"/>
<feComposite in2="hardAlpha" operator="out"/>
<feColorMatrix type="matrix" values="0 0 0 0 0 0 0 0 0 0 0 0 0 0 0 0 0 0 0.12 0"/>
<feBlend mode="normal" in2="BackgroundImageFix" result="effect1_dropShadow_592_754"/>
<feBlend mode="normal" in="SourceGraphic" in2="effect1_dropShadow_592_754" result="shape"/>
</filter>
<linearGradient id="paint0_linear_592_754" x1="-14.5" y1="-13.5" x2="62.2942" y2="60.8666" gradientUnits="userSpaceOnUse">
<stop offset="0.199961" stop-color="#115D97"/>
<stop offset="0.357795" stop-color="#148098"/>
<stop offset="0.602211" stop-color="#F34660"/>
<stop offset="1" stop-color="#EE078D"/>
</linearGradient>
<clipPath id="clip0_592_754">
<rect width="26" height="26" fill="white"/>
</clipPath>
</defs>
</svg>
