<svg width="190" height="57" viewBox="0 0 190 57" fill="none" xmlns="http://www.w3.org/2000/svg">
<g clip-path="url(#clip0_1239_28681)">
<path d="M61.4796 8.82276L63.6284 0.638193H59.8735C54.0357 0.638193 48.9241 4.5838 47.4426 10.2309L42.7783 28.0668L35.9578 0.630859H27.5092L20.7254 27.9568L16.0831 10.2309C14.609 4.5838 9.49732 0.638193 3.65959 0.638193H0L2.14882 8.82276H3.65959C5.77907 8.82276 7.63453 10.2529 8.1699 12.3063L15.3717 39.9769H24.8764L31.7409 13.5751L38.6053 39.9769H48.11L55.3632 12.3063C55.8985 10.2602 57.754 8.82276 59.8735 8.82276H61.4796Z" fill="#017CFF"/>
<path d="M91.9736 24.0109V39.9693H100.158V24.0109C100.158 21.114 102.52 18.7525 105.417 18.7525H109.127L111.269 10.568H105.417C98.0021 10.568 91.9736 16.5964 91.9736 24.0109Z" fill="#017CFF"/>
<path d="M80.7241 12.4598C78.3993 11.1544 75.8104 10.509 72.9649 10.509C70.1193 10.509 67.5158 11.1617 65.1763 12.4598C62.8368 13.7652 60.9667 15.54 59.5806 17.7915C58.1872 20.043 57.4978 22.6318 57.4978 25.5507C57.4978 28.4696 58.1945 31.0144 59.5806 33.2879C60.974 35.5614 62.8368 37.3435 65.1763 38.649C67.5158 39.9544 70.112 40.5998 72.9649 40.5998C75.8177 40.5998 78.4066 39.947 80.7241 38.649C83.0489 37.3435 84.9044 35.5614 86.2978 33.2879C87.6912 31.0144 88.3806 28.4402 88.3806 25.5507C88.3806 22.6612 87.6839 20.043 86.2978 17.7915C84.9044 15.54 83.0489 13.7579 80.7241 12.4598ZM79.272 29.6723C78.6559 30.8677 77.8125 31.7991 76.7345 32.4739C75.6637 33.1412 74.4023 33.4786 72.9575 33.4786C71.5128 33.4786 70.244 33.1412 69.1586 32.4739C68.0659 31.8065 67.2151 30.8751 66.5991 29.6723C65.9831 28.4769 65.675 27.1055 65.675 25.5507C65.675 23.9959 65.9831 22.6392 66.5991 21.4584C67.2151 20.2777 68.0659 19.3463 69.1586 18.6569C70.2514 17.9675 71.5128 17.6302 72.9575 17.6302C74.4023 17.6302 75.6564 17.9749 76.7345 18.6569C77.8052 19.3463 78.6559 20.2777 79.272 21.4584C79.888 22.6392 80.196 24.0033 80.196 25.5507C80.196 27.0982 79.888 28.4769 79.272 29.6723Z" fill="#017CFF"/>
<path d="M134.488 13.5971C133.732 12.8417 132.852 12.1964 131.818 11.6977C130.183 10.9056 128.305 10.5096 126.193 10.5096C123.45 10.5096 120.964 11.177 118.749 12.519C116.534 13.8538 114.774 15.6579 113.469 17.9314C112.163 20.2049 111.518 22.7424 111.518 25.5586C111.518 28.3748 112.163 30.8757 113.447 33.1638C114.73 35.452 116.483 37.2634 118.698 38.6055C120.913 39.9403 123.436 40.615 126.252 40.615C128.225 40.615 130.051 40.2556 131.745 39.5296C133.043 38.9722 134.136 38.2095 135.016 37.2488V39.9843H142.408V0.000183105H134.488V13.5971ZM133.556 29.6729C132.94 30.8683 132.089 31.7997 130.997 32.4744C129.904 33.1418 128.635 33.4792 127.198 33.4792C125.76 33.4792 124.462 33.1418 123.318 32.4744C122.174 31.8071 121.287 30.8757 120.649 29.6729C120.018 28.4775 119.695 27.1061 119.695 25.5513C119.695 23.9965 120.011 22.6398 120.649 21.459C121.279 20.2783 122.174 19.3469 123.318 18.6575C124.462 17.9681 125.753 17.6307 127.198 17.6307C128.643 17.6307 129.911 17.9681 130.997 18.6355C132.089 19.3029 132.94 20.2343 133.556 21.437C134.172 22.6324 134.48 24.0038 134.48 25.5586C134.48 27.1134 134.172 28.4848 133.556 29.6802V29.6729Z" fill="#017CFF"/>
<path d="M155.003 0.000183105H147.083V39.9696H155.003V0.000183105Z" fill="#017CFF"/>
<path d="M189.113 11.1396H180.613L175.032 26.3354C174.577 27.3694 174.145 28.4108 173.719 29.4596L166.994 11.1396H158.494L169.803 39.8296C168.945 42.1691 167.918 44.6186 166.657 45.9021C163.269 50.251 155.209 50.0237 155.033 43.6212H147.149C147.002 49.6716 151.659 55.2087 157.585 56.2868C166.041 58.0982 173.602 51.9231 176.139 44.2959L189.113 11.1396Z" fill="#017CFF"/>
</g>
<defs>
<clipPath id="clip0_1239_28681">
<rect width="189.11" height="56.6099" fill="white"/>
</clipPath>
</defs>
</svg>
