<svg width="143" height="43" viewBox="0 0 143 43" fill="none" xmlns="http://www.w3.org/2000/svg">
<g clip-path="url(#clip0_1239_28753)">
<path d="M46.182 6.62744L47.7962 0.479386H44.9755C40.5904 0.479386 36.7506 3.44323 35.6378 7.68517L32.134 21.0831L27.0107 0.473877H20.6643L15.5685 21.0004L12.0813 7.68517C10.9739 3.44323 7.13417 0.479386 2.749 0.479386H0L1.61414 6.62744H2.749C4.3411 6.62744 5.73488 7.7017 6.13704 9.24422L11.5469 30.0297H18.6866L23.843 10.1973L28.9994 30.0297H36.1391L41.5875 9.24422C41.9897 7.70721 43.3834 6.62744 44.9755 6.62744H46.182Z" fill="white"/>
<path d="M69.0884 18.0364V30.024H75.2364V18.0364C75.2364 15.8604 77.0103 14.0865 79.1864 14.0865H81.9739L83.5826 7.93842H79.1864C73.6168 7.93842 69.0884 12.4668 69.0884 18.0364Z" fill="white"/>
<path d="M60.638 9.3595C58.8917 8.3789 56.947 7.8941 54.8095 7.8941C52.672 7.8941 50.7163 8.38441 48.9589 9.3595C47.2015 10.3401 45.7967 11.6733 44.7555 13.3646C43.7088 15.0558 43.191 17.0005 43.191 19.1931C43.191 21.3857 43.7143 23.2973 44.7555 25.0051C45.8022 26.7129 47.2015 28.0516 48.9589 29.0322C50.7163 30.0128 52.6665 30.4976 54.8095 30.4976C56.9525 30.4976 58.8972 30.0073 60.638 29.0322C62.3844 28.0516 63.7781 26.7129 64.8249 25.0051C65.8716 23.2973 66.3894 21.3636 66.3894 19.1931C66.3894 17.0225 65.8661 15.0558 64.8249 13.3646C63.7781 11.6733 62.3844 10.3346 60.638 9.3595ZM59.5472 22.2891C59.0845 23.1871 58.4509 23.8868 57.6411 24.3936C56.8368 24.8949 55.8892 25.1483 54.804 25.1483C53.7187 25.1483 52.7656 24.8949 51.9503 24.3936C51.1295 23.8923 50.4904 23.1926 50.0277 22.2891C49.5649 21.3912 49.3335 20.361 49.3335 19.1931C49.3335 18.0252 49.5649 17.006 50.0277 16.1191C50.4904 15.2321 51.1295 14.5325 51.9503 14.0146C52.7711 13.4968 53.7187 13.2434 54.804 13.2434C55.8892 13.2434 56.8313 13.5023 57.6411 14.0146C58.4454 14.5325 59.0845 15.2321 59.5472 16.1191C60.01 17.006 60.2414 18.0307 60.2414 19.1931C60.2414 20.3555 60.01 21.3912 59.5472 22.2891Z" fill="white"/>
<path d="M101.024 10.2138C100.457 9.6464 99.7954 9.1616 99.0187 8.78699C97.7901 8.19202 96.3798 7.89453 94.7932 7.89453C92.7329 7.89453 90.8653 8.39585 89.2016 9.404C87.5379 10.4066 86.2157 11.7619 85.2351 13.4697C84.2545 15.1774 83.7697 17.0836 83.7697 19.199C83.7697 21.3145 84.2545 23.1931 85.2186 24.9119C86.1827 26.6307 87.4993 27.9914 89.163 28.9995C90.8268 30.0022 92.7219 30.509 94.8373 30.509C96.3192 30.509 97.691 30.2391 98.9636 29.6937C99.9387 29.275 100.76 28.7021 101.421 27.9804V30.0352H106.974V0.00012207H101.024V10.2138ZM100.324 22.2896C99.8615 23.1875 99.2225 23.8872 98.4016 24.394C97.5808 24.8953 96.6277 25.1488 95.548 25.1488C94.4682 25.1488 93.4931 24.8953 92.6337 24.394C91.7743 23.8927 91.1077 23.1931 90.6284 22.2896C90.1547 21.3916 89.9123 20.3614 89.9123 19.1935C89.9123 18.0256 90.1491 17.0064 90.6284 16.1195C91.1022 15.2325 91.7743 14.5329 92.6337 14.015C93.4931 13.4972 94.4627 13.2438 95.548 13.2438C96.6333 13.2438 97.5863 13.4972 98.4016 13.9985C99.2225 14.4998 99.8615 15.1995 100.324 16.103C100.787 17.0009 101.018 18.0311 101.018 19.199C101.018 20.3669 100.787 21.3971 100.324 22.2951V22.2896Z" fill="white"/>
<path d="M116.435 0.00012207H110.485V30.0242H116.435V0.00012207Z" fill="white"/>
<path d="M142.057 8.36786H135.672L131.48 19.7825C131.138 20.5593 130.813 21.3416 130.494 22.1294L125.442 8.36786H119.057L127.552 29.9191C126.907 31.6765 126.136 33.5165 125.189 34.4806C122.644 37.7474 116.589 37.5766 116.457 32.7673H110.535C110.425 37.3122 113.923 41.4715 118.374 42.2813C124.726 43.642 130.406 39.0035 132.312 33.2741L142.057 8.36786Z" fill="white"/>
</g>
<defs>
<clipPath id="clip0_1239_28753">
<rect width="142.055" height="42.524" fill="white"/>
</clipPath>
</defs>
</svg>
