<svg preserveAspectRatio="none" width="100%" height="100%" overflow="visible" style="display: block;" viewBox="0 0 226.879 226.879" fill="none" xmlns="http://www.w3.org/2000/svg">
<g id="Group 2147257067">
<path id="CompoundPath 35" fill-rule="evenodd" clip-rule="evenodd" d="M113.44 0C50.7888 0 0.564363 55.0049 1.3169 110.247C2.06944 165.488 13.545 158.19 13.545 184.809C13.545 211.427 2.48253e-05 226.879 2.48253e-05 226.879C2.48253e-05 226.879 13.3569 216.925 38.5657 216.925C63.7745 216.925 52.4401 226.879 113.416 226.879C174.392 226.879 226.879 176.079 226.879 113.427C226.879 50.79 176.09 0 113.44 0Z" fill="var(--fill-0, #017CFF)"/>
<path id="Vector" d="M186.257 94.9265L191.557 74.7206H182.297C167.9 74.7206 155.294 84.4615 151.641 98.4028L140.138 142.436L123.336 74.7206H102.502L85.7721 142.182L74.3237 98.4209C70.6703 84.4796 58.0826 74.7387 43.6681 74.7387H34.6432L39.9424 94.9446H43.6681C48.8949 94.9446 53.4706 98.4752 54.7909 103.545L72.5513 171.857H95.9906L112.919 106.677L129.847 171.857H153.287L171.174 103.545C172.494 98.4933 177.07 94.9446 182.297 94.9446H186.257V94.9265Z" fill="var(--fill-0, white)"/>
</g>
</svg>
